<svg width="24" height="25" viewBox="0 0 24 25" fill="none" xmlns="http://www.w3.org/2000/svg">
<path d="M20.7938 16.6033C20.2734 15.707 19.5 13.1711 19.5 9.85889C19.5 7.86976 18.7098 5.96211 17.3033 4.55559C15.8968 3.14906 13.9891 2.35889 12 2.35889C10.0109 2.35889 8.10323 3.14906 6.69671 4.55559C5.29019 5.96211 4.50001 7.86976 4.50001 9.85889C4.50001 13.172 3.72564 15.707 3.20532 16.6033C3.07245 16.8311 3.00201 17.09 3.00111 17.3537C3.0002 17.6175 3.06886 17.8768 3.20017 18.1056C3.33147 18.3344 3.52077 18.5244 3.74899 18.6567C3.9772 18.789 4.23625 18.8587 4.50001 18.8589H8.32595C8.49899 19.7056 8.95916 20.4666 9.62864 21.0131C10.2981 21.5596 11.1358 21.858 12 21.858C12.8642 21.858 13.7019 21.5596 14.3714 21.0131C15.0409 20.4666 15.501 19.7056 15.6741 18.8589H19.5C19.7637 18.8585 20.0226 18.7887 20.2507 18.6564C20.4788 18.524 20.668 18.3339 20.7992 18.1052C20.9303 17.8765 20.9989 17.6172 20.998 17.3535C20.997 17.0898 20.9266 16.831 20.7938 16.6033ZM12 20.3589C11.5348 20.3587 11.0812 20.2144 10.7014 19.9458C10.3216 19.6772 10.0344 19.2975 9.87939 18.8589H14.1206C13.9656 19.2975 13.6784 19.6772 13.2986 19.9458C12.9189 20.2144 12.4652 20.3587 12 20.3589ZM4.50001 17.3589C5.22189 16.1176 6.00001 13.2414 6.00001 9.85889C6.00001 8.26759 6.63215 6.74146 7.75737 5.61625C8.88259 4.49103 10.4087 3.85889 12 3.85889C13.5913 3.85889 15.1174 4.49103 16.2427 5.61625C17.3679 6.74146 18 8.26759 18 9.85889C18 13.2386 18.7763 16.1148 19.5 17.3589H4.50001Z" fill="#14121B"/>
</svg>
