<svg width="54" height="54" viewBox="0 0 54 54" fill="none" xmlns="http://www.w3.org/2000/svg">
<rect width="54" height="54" rx="4" fill="#3C79FE"/>
<path d="M48.8637 41.0381L41.8627 7.75211C41.7721 7.31683 41.5964 6.90372 41.3458 6.53652C41.0951 6.16933 40.7743 5.85528 40.4019 5.61243C40.0295 5.36957 39.6128 5.20269 39.1756 5.12138C38.7385 5.04006 38.2897 5.04592 37.8548 5.1386L27.9809 7.26063C27.1075 7.45186 26.3449 7.98021 25.859 8.73074C25.3732 9.48128 25.2033 10.3933 25.3863 11.2684L32.3873 44.5544C32.5434 45.3138 32.9561 45.9963 33.5561 46.4873C34.1562 46.9782 34.9069 47.2476 35.6822 47.2502C35.9218 47.2498 36.1608 47.2244 36.3952 47.1742L46.2691 45.0522C47.1436 44.8605 47.9069 44.3311 48.3928 43.5793C48.8788 42.8274 49.048 41.9141 48.8637 41.0381ZM28.6875 10.5787C28.6875 10.566 28.6875 10.5597 28.6875 10.5597L38.5594 8.45032L39.2618 11.7979L29.3899 13.922L28.6875 10.5787ZM30.0839 17.2169L39.96 15.097L40.6645 18.4509L30.7969 20.5729L30.0839 17.2169ZM31.4845 23.8762L41.3606 21.7541L44.1661 35.0938L34.29 37.2159L31.4845 23.8762ZM45.5625 41.7531L35.6906 43.8625L34.9882 40.5149L44.8601 38.3908L45.5625 41.7341C45.5625 41.7468 45.5625 41.7531 45.5625 41.7531ZM21.9375 6.75016H11.8125C10.9174 6.75016 10.0589 7.10574 9.42601 7.73867C8.79308 8.37161 8.4375 9.23005 8.4375 10.1252V43.8752C8.4375 44.7703 8.79308 45.6287 9.42601 46.2616C10.0589 46.8946 10.9174 47.2502 11.8125 47.2502H21.9375C22.8326 47.2502 23.691 46.8946 24.324 46.2616C24.9569 45.6287 25.3125 44.7703 25.3125 43.8752V10.1252C25.3125 9.23005 24.9569 8.37161 24.324 7.73867C23.691 7.10574 22.8326 6.75016 21.9375 6.75016ZM11.8125 10.1252H21.9375V13.5002H11.8125V10.1252ZM11.8125 16.8752H21.9375V37.1252H11.8125V16.8752ZM21.9375 43.8752H11.8125V40.5002H21.9375V43.8752Z" fill="white"/>
</svg>
