<svg width="54" height="54" viewBox="0 0 54 54" fill="none" xmlns="http://www.w3.org/2000/svg">
<rect width="54" height="54" rx="4" fill="#3C79FE"/>
<path d="M48.9375 27.0001C48.9375 32.8183 46.6262 38.3982 42.5122 42.5123C38.3981 46.6264 32.8182 48.9376 27 48.9376C21.1818 48.9376 15.6019 46.6264 11.4878 42.5123C7.37377 38.3982 5.0625 32.8183 5.0625 27.0001C5.0625 18.3517 10.0849 10.4711 17.858 6.9041C18.0594 6.81158 18.277 6.75963 18.4984 6.75122C18.7199 6.74281 18.9409 6.7781 19.1487 6.85507C19.3565 6.93205 19.5471 7.04921 19.7097 7.19986C19.8722 7.35051 20.0035 7.5317 20.096 7.73308C20.1885 7.93447 20.2405 8.1521 20.2489 8.37356C20.2573 8.59502 20.222 8.81597 20.145 9.02379C20.0681 9.23162 19.9509 9.42224 19.8003 9.58478C19.6496 9.74733 19.4684 9.87861 19.267 9.97113C12.6879 12.9918 8.4375 19.6743 8.4375 27.0001C8.4375 31.9232 10.3932 36.6446 13.8743 40.1258C17.3555 43.6069 22.0769 45.5626 27 45.5626C31.9231 45.5626 36.6445 43.6069 40.1257 40.1258C43.6068 36.6446 45.5625 31.9232 45.5625 27.0001C45.5625 19.6743 41.3121 12.9918 34.733 9.97113C34.3263 9.78428 34.0104 9.44351 33.855 9.02379C33.6995 8.60408 33.7171 8.13979 33.904 7.73308C34.0908 7.32637 34.4316 7.01054 34.8513 6.85507C35.271 6.69961 35.7353 6.71724 36.142 6.9041C43.9151 10.4711 48.9375 18.3517 48.9375 27.0001Z" fill="white"/>
</svg>
