<svg width="24" height="25" viewBox="0 0 24 25" fill="none" xmlns="http://www.w3.org/2000/svg">
<path d="M22.86 7.25179C22.6908 7.10427 22.4816 7.01037 22.2589 6.98199C22.0362 6.95361 21.8102 6.99205 21.6094 7.09242L16.9022 9.43617L12.9722 2.90835C12.8712 2.74085 12.7286 2.60229 12.5582 2.5061C12.3879 2.40992 12.1956 2.35938 12 2.35938C11.8044 2.35938 11.6121 2.40992 11.4418 2.5061C11.2714 2.60229 11.1288 2.74085 11.0278 2.90835L7.09781 9.43898L2.3925 7.09523C2.19219 6.99575 1.96697 6.95765 1.74509 6.98571C1.52321 7.01376 1.31455 7.10673 1.14531 7.25293C0.976076 7.39914 0.853789 7.59208 0.7938 7.80753C0.733812 8.02298 0.738794 8.25135 0.808121 8.46398L4.27687 19.0915C4.31175 19.1982 4.37016 19.2958 4.44779 19.377C4.52542 19.4582 4.62029 19.5209 4.7254 19.5604C4.83051 19.6 4.94317 19.6155 5.05506 19.6058C5.16695 19.596 5.27522 19.5612 5.37187 19.504C5.39531 19.4899 7.7925 18.109 12 18.109C16.2075 18.109 18.6047 19.4899 18.6262 19.503C18.7229 19.5608 18.8314 19.5961 18.9436 19.6062C19.0557 19.6163 19.1687 19.601 19.2742 19.5615C19.3797 19.5219 19.4749 19.4592 19.5527 19.3778C19.6306 19.2964 19.6892 19.1986 19.7241 19.0915L23.1928 8.46679C23.2641 8.2541 23.2706 8.025 23.2113 7.80865C23.152 7.59229 23.0297 7.39845 22.86 7.25179ZM18.5625 17.8118C17.4375 17.3346 15.195 16.609 12 16.609C8.805 16.609 6.5625 17.3346 5.4375 17.8118L2.50406 8.82773L6.72937 10.9343C6.98513 11.0604 7.27884 11.0862 7.55266 11.0066C7.82648 10.9269 8.06054 10.7476 8.20875 10.504L12 4.2021L15.7912 10.5021C15.9396 10.7453 16.1735 10.9243 16.447 11.0039C16.7206 11.0836 17.014 11.0581 17.2697 10.9324L21.4959 8.82773L18.5625 17.8118ZM16.4878 14.8118C16.4572 14.9853 16.3665 15.1425 16.2316 15.2558C16.0967 15.3691 15.9262 15.4313 15.75 15.4315C15.706 15.4314 15.6621 15.4277 15.6187 15.4202C13.2231 15.009 10.775 15.009 8.37937 15.4202C8.18344 15.4548 7.98181 15.4101 7.81883 15.296C7.65585 15.1819 7.54487 15.0077 7.51031 14.8118C7.47575 14.6159 7.52043 14.4142 7.63454 14.2513C7.74864 14.0883 7.92282 13.9773 8.11875 13.9427C10.6868 13.5015 13.3113 13.5015 15.8794 13.9427C16.0749 13.9771 16.2489 14.0875 16.3631 14.2499C16.4773 14.4123 16.5225 14.6133 16.4887 14.809L16.4878 14.8118Z" fill="#14121B"/>
</svg>
