<svg width="40" height="40" viewBox="0 0 40 40" fill="none" xmlns="http://www.w3.org/2000/svg">
<g clip-path="url(#clip0_2481_3043)">
<path d="M36.6216 16.7568C36.6216 15.2251 36.4374 13.7367 36.0936 12.3108C35.1113 10.2632 33.749 8.43126 32.0992 6.90583C29.0734 5.09824 25.5091 4.11309 21.7246 4.25106C11.2829 4.63161 3.12694 13.4051 3.50748 23.8467C3.56316 25.3743 3.80073 26.852 4.19492 28.2621C5.04669 29.8851 6.14049 31.3618 7.42929 32.6432C10.3877 34.5607 13.9145 35.6757 17.7027 35.6757C28.1512 35.6757 36.6216 27.2053 36.6216 16.7568ZM26.6891 13.3784C27.8832 13.3784 28.8513 14.3465 28.8513 15.5405C28.8513 16.7346 27.8832 17.7027 26.6891 17.7027C25.4951 17.7027 24.527 16.7346 24.527 15.5405C24.527 14.3465 25.4951 13.3784 26.6891 13.3784ZM13.3106 13.3784C14.5047 13.3784 15.4728 14.3465 15.4728 15.5405C15.4728 16.7346 14.5047 17.7027 13.3106 17.7027C12.1165 17.7027 11.1484 16.7346 11.1484 15.5405C11.1484 14.3465 12.1165 13.3784 13.3106 13.3784ZM13.3107 33.5002C10.2735 33.5002 7.80254 31.0293 7.80254 27.9921C7.80254 26.7046 8.60634 25.0949 10.26 23.0709C11.3972 21.6789 12.5199 20.6114 12.5671 20.5666L13.3107 19.8617L14.0545 20.5667C14.1017 20.6114 15.2241 21.679 16.3613 23.0709C16.9444 23.7847 17.4197 24.4459 17.7935 25.0607C19.3495 24.7753 20.9668 24.7822 22.556 25.1143C25.4293 25.7153 28.0093 27.3293 29.8204 29.6591L28.1135 30.9862C26.6164 29.0606 24.4855 27.7269 22.1134 27.2308C20.9777 26.9933 19.8247 26.9583 18.702 27.1054C18.7784 27.4165 18.8186 27.7123 18.8186 27.9921C18.8186 31.0293 16.3478 33.5002 13.3107 33.5002Z" fill="#FFCE00"/>
<path d="M36.0936 12.3125C36.4374 13.7386 36.6215 15.2269 36.6215 16.7585C36.6215 27.207 28.1512 35.6774 17.7026 35.6774C13.9145 35.6774 10.3875 34.5624 7.42926 32.6449C10.6563 35.8536 15.1006 37.8396 20 37.8396C29.8358 37.8396 37.8378 29.8376 37.8378 20.0018C37.8378 17.2501 37.211 14.6421 36.0936 12.3125Z" fill="#FFB100"/>
<path d="M21.7246 4.25287C25.5092 4.1149 29.0735 5.10005 32.0992 6.90764C28.9173 3.96517 24.6653 2.16406 20 2.16406C10.1642 2.16406 2.16217 10.1661 2.16217 20.0019C2.16217 22.9815 2.89759 25.7924 4.1949 28.2639C3.80071 26.8539 3.56314 25.3761 3.50746 23.8485C3.12691 13.4069 11.2828 4.63342 21.7246 4.25287Z" fill="#FFE454"/>
<path d="M20 0C8.97201 0 0 8.97201 0 20C0 31.028 8.97201 40 20 40C31.028 40 40 31.028 40 20C40 8.97201 31.0281 0 20 0ZM20 37.8378C15.1005 37.8378 10.6562 35.8518 7.42929 32.6431C6.14062 31.3618 5.04669 29.885 4.19492 28.262C2.89761 25.7905 2.16219 22.9796 2.16219 20C2.16219 10.1642 10.1642 2.16219 20 2.16219C24.6653 2.16219 28.9173 3.9633 32.0992 6.90577C33.749 8.4312 35.1113 10.2631 36.0936 12.3107C37.2112 14.6403 37.8378 17.2483 37.8378 20C37.8378 29.8358 29.8358 37.8378 20 37.8378Z" fill="black"/>
<path d="M13.3106 17.7033C14.5047 17.7033 15.4728 16.7352 15.4728 15.5411C15.4728 14.347 14.5047 13.3789 13.3106 13.3789C12.1164 13.3789 11.1484 14.347 11.1484 15.5411C11.1484 16.7352 12.1164 17.7033 13.3106 17.7033Z" fill="black"/>
<path d="M26.6892 17.7033C27.8833 17.7033 28.8514 16.7352 28.8514 15.5411C28.8514 14.347 27.8833 13.3789 26.6892 13.3789C25.495 13.3789 24.527 14.347 24.527 15.5411C24.527 16.7352 25.495 17.7033 26.6892 17.7033Z" fill="black"/>
<path d="M13.3111 22.8789C11.7352 24.5239 9.96472 26.8214 9.96472 27.9934C9.96472 29.8383 11.4657 31.3394 13.3107 31.3394C15.1555 31.3394 16.6564 29.8385 16.6564 27.9934C16.6564 26.8186 14.8867 24.5223 13.3111 22.8789Z" fill="#28E0FF"/>
<path d="M18.702 27.107C19.8249 26.9599 20.9777 26.9949 22.1134 27.2324C24.4856 27.7285 26.6165 29.0622 28.1135 30.9878L29.8204 29.6607C28.0093 27.3309 25.4293 25.7169 22.556 25.1159C20.9668 24.7838 19.3493 24.7767 17.7935 25.0623C17.4197 24.4475 16.9446 23.7864 16.3613 23.0725C15.2241 21.6806 14.1016 20.613 14.0545 20.5683L13.3107 19.8633L12.5671 20.5682C12.5198 20.613 11.3972 21.6805 10.26 23.0725C8.60648 25.0965 7.80255 26.7062 7.80255 27.9937C7.80255 31.0309 10.2735 33.5018 13.3107 33.5018C16.3478 33.5018 18.8186 31.0309 18.8186 27.9937C18.8186 27.7139 18.7782 27.4181 18.702 27.107ZM13.3107 31.3395C11.4658 31.3395 9.96474 29.8386 9.96474 27.9935C9.96474 26.8215 11.7352 24.524 13.3111 22.879C14.8867 24.5224 16.6565 26.8186 16.6565 27.9935C16.6565 29.8386 15.1555 31.3395 13.3107 31.3395Z" fill="black"/>
</g>
<defs>
<clipPath id="clip0_2481_3043">
<rect width="40" height="40" fill="white"/>
</clipPath>
</defs>
</svg>
