<svg width="25" height="24" viewBox="0 0 25 24" fill="none" xmlns="http://www.w3.org/2000/svg">
<path d="M22.9522 2.17078C22.7843 2.02599 22.58 1.92974 22.3615 1.8924C22.1429 1.85507 21.9183 1.87806 21.7119 1.95891L2.71249 9.39422C2.36765 9.52853 2.07575 9.77119 1.88072 10.0857C1.68569 10.4002 1.59808 10.7696 1.63107 11.1382C1.66406 11.5068 1.81587 11.8547 2.06365 12.1296C2.31143 12.4044 2.64178 12.5914 3.00499 12.6623L7.62499 13.5689V18.7495C7.62498 19.1233 7.73669 19.4886 7.94578 19.7984C8.15486 20.1082 8.45178 20.3485 8.79841 20.4884C9.14504 20.6282 9.52556 20.6613 9.89112 20.5833C10.2567 20.5054 10.5906 20.3199 10.85 20.0508L12.9753 17.8467L16.4703 20.9058C16.7141 21.1202 17.0094 21.2676 17.3273 21.3336C17.6452 21.3997 17.9747 21.382 18.2838 21.2824C18.5928 21.1828 18.8706 21.0047 19.0901 20.7654C19.3096 20.5262 19.4632 20.2341 19.5359 19.9177L23.3441 3.3661C23.3936 3.15006 23.3833 2.92459 23.3143 2.71398C23.2452 2.50336 23.12 2.31556 22.9522 2.17078ZM14.3197 7.26703L8.48937 11.4455L5.26156 10.8127L14.3197 7.26703ZM9.87499 17.8177V15.1261L11.2812 16.3589L9.87499 17.8177ZM17.4837 18.8039L10.5575 12.7317L20.5241 5.58985L17.4837 18.8039Z" fill="#FEFEFE"/>
</svg>
