<svg width="33" height="32" viewBox="0 0 33 32" fill="none" xmlns="http://www.w3.org/2000/svg">
<path d="M16.5 5C14.1266 5 11.8066 5.70379 9.83316 7.02236C7.85977 8.34094 6.3217 10.2151 5.41345 12.4078C4.5052 14.6005 4.26756 17.0133 4.73058 19.3411C5.1936 21.6689 6.33649 23.8071 8.01472 25.4853C9.69295 27.1635 11.8312 28.3064 14.1589 28.7694C16.4867 29.2324 18.8995 28.9948 21.0922 28.0866C23.2849 27.1783 25.1591 25.6402 26.4776 23.6668C27.7962 21.6935 28.5 19.3734 28.5 17C28.4964 13.8185 27.2309 10.7684 24.9813 8.51874C22.7316 6.26909 19.6815 5.00364 16.5 5ZM16.5 27C14.5222 27 12.5888 26.4135 10.9443 25.3147C9.29981 24.2159 8.01809 22.6541 7.26121 20.8268C6.50433 18.9996 6.3063 16.9889 6.69215 15.0491C7.078 13.1093 8.03041 11.3275 9.42894 9.92893C10.8275 8.53041 12.6093 7.578 14.5491 7.19215C16.4889 6.80629 18.4996 7.00433 20.3268 7.7612C22.1541 8.51808 23.7159 9.79981 24.8147 11.4443C25.9135 13.0888 26.5 15.0222 26.5 17C26.497 19.6513 25.4425 22.1931 23.5678 24.0678C21.6931 25.9425 19.1513 26.997 16.5 27ZM22.2075 11.2925C22.3005 11.3854 22.3742 11.4957 22.4246 11.6171C22.4749 11.7385 22.5008 11.8686 22.5008 12C22.5008 12.1314 22.4749 12.2615 22.4246 12.3829C22.3742 12.5043 22.3005 12.6146 22.2075 12.7075L17.2075 17.7075C17.1146 17.8004 17.0043 17.8741 16.8829 17.9244C16.7615 17.9747 16.6314 18.0006 16.5 18.0006C16.3686 18.0006 16.2385 17.9747 16.1171 17.9244C15.9957 17.8741 15.8854 17.8004 15.7925 17.7075C15.6996 17.6146 15.6259 17.5043 15.5756 17.3829C15.5253 17.2615 15.4994 17.1314 15.4994 17C15.4994 16.8686 15.5253 16.7385 15.5756 16.6171C15.6259 16.4957 15.6996 16.3854 15.7925 16.2925L20.7925 11.2925C20.8854 11.1995 20.9957 11.1258 21.1171 11.0754C21.2385 11.0251 21.3686 10.9992 21.5 10.9992C21.6314 10.9992 21.7615 11.0251 21.8829 11.0754C22.0043 11.1258 22.1146 11.1995 22.2075 11.2925ZM12.5 2C12.5 1.73478 12.6054 1.48043 12.7929 1.29289C12.9804 1.10536 13.2348 1 13.5 1H19.5C19.7652 1 20.0196 1.10536 20.2071 1.29289C20.3946 1.48043 20.5 1.73478 20.5 2C20.5 2.26522 20.3946 2.51957 20.2071 2.70711C20.0196 2.89464 19.7652 3 19.5 3H13.5C13.2348 3 12.9804 2.89464 12.7929 2.70711C12.6054 2.51957 12.5 2.26522 12.5 2Z" fill="#14121B"/>
</svg>
