<svg width="28" height="28" viewBox="0 0 28 28" fill="none" xmlns="http://www.w3.org/2000/svg">
<path d="M25.375 15.75C25.3729 17.6059 24.6348 19.3852 23.3225 20.6975C22.0102 22.0098 20.2309 22.748 18.375 22.75H8.74996C8.51789 22.75 8.29533 22.6578 8.13124 22.4937C7.96714 22.3296 7.87496 22.1071 7.87496 21.875C7.87496 21.6429 7.96714 21.4204 8.13124 21.2563C8.29533 21.0922 8.51789 21 8.74996 21H18.375C19.7673 21 21.1027 20.4469 22.0873 19.4623C23.0718 18.4777 23.625 17.1424 23.625 15.75C23.625 14.3576 23.0718 13.0223 22.0873 12.0377C21.1027 11.0531 19.7673 10.5 18.375 10.5H5.61199L9.36902 14.2559C9.53321 14.4201 9.62544 14.6428 9.62544 14.875C9.62544 15.1072 9.53321 15.3299 9.36902 15.4941C9.20483 15.6582 8.98215 15.7505 8.74996 15.7505C8.51776 15.7505 8.29508 15.6582 8.13089 15.4941L2.88089 10.2441C2.79954 10.1628 2.735 10.0663 2.69097 9.96007C2.64693 9.85385 2.62427 9.73999 2.62427 9.625C2.62427 9.51001 2.64693 9.39615 2.69097 9.28993C2.735 9.1837 2.79954 9.0872 2.88089 9.00593L8.13089 3.75594C8.29508 3.59175 8.51776 3.49951 8.74996 3.49951C8.98215 3.49951 9.20483 3.59175 9.36902 3.75594C9.5332 3.92012 9.62544 4.1428 9.62544 4.375C9.62544 4.60719 9.53321 4.82987 9.36902 4.99406L5.61199 8.75H18.375C20.2309 8.75202 22.0102 9.49017 23.3225 10.8025C24.6348 12.1148 25.3729 13.8941 25.375 15.75Z" fill="#3C79FE"/>
</svg>
