<svg width="54" height="54" viewBox="0 0 54 54" fill="none" xmlns="http://www.w3.org/2000/svg">
<rect width="54" height="54" rx="4" fill="#3C79FE"/>
<path d="M48.9375 43.875C48.9375 44.3226 48.7597 44.7518 48.4432 45.0682C48.1268 45.3847 47.6976 45.5625 47.25 45.5625H6.75C6.30245 45.5625 5.87322 45.3847 5.55676 45.0682C5.24029 44.7518 5.0625 44.3226 5.0625 43.875V10.125C5.0625 9.67745 5.24029 9.24823 5.55676 8.93176C5.87322 8.61529 6.30245 8.4375 6.75 8.4375C7.19755 8.4375 7.62677 8.61529 7.94324 8.93176C8.25971 9.24823 8.4375 9.67745 8.4375 10.125V30.0312L19.1384 20.6719C19.4295 20.417 19.7995 20.2699 20.1862 20.2553C20.5729 20.2407 20.9529 20.3595 21.2625 20.5917L33.6677 29.8962L46.1384 18.9844C46.3019 18.8225 46.4967 18.6958 46.711 18.612C46.9253 18.5282 47.1544 18.4892 47.3844 18.4972C47.6143 18.5052 47.8402 18.5602 48.0481 18.6587C48.256 18.7572 48.4416 18.8972 48.5934 19.07C48.7452 19.2429 48.8601 19.445 48.931 19.6639C49.0018 19.8828 49.0272 20.1138 49.0055 20.3429C48.9838 20.5719 48.9155 20.7941 48.8048 20.9958C48.694 21.1975 48.5432 21.3744 48.3616 21.5156L34.8616 33.3281C34.5704 33.583 34.2005 33.7301 33.8138 33.7447C33.4271 33.7593 33.0471 33.6405 32.7375 33.4083L20.3323 24.108L8.4375 34.5157V42.1875H47.25C47.6976 42.1875 48.1268 42.3653 48.4432 42.6818C48.7597 42.9982 48.9375 43.4274 48.9375 43.875Z" fill="white"/>
</svg>
