<svg width="24" height="25" viewBox="0 0 24 25" fill="none" xmlns="http://www.w3.org/2000/svg">
<path d="M12.75 7.60874V11.684L16.1363 13.7156C16.3068 13.8181 16.4297 13.9841 16.4779 14.1771C16.5261 14.3701 16.4956 14.5744 16.3931 14.745C16.2907 14.9156 16.1247 15.0384 15.9316 15.0866C15.7386 15.1348 15.5343 15.1043 15.3638 15.0019L11.6138 12.7519C11.5028 12.6852 11.4109 12.5909 11.3472 12.4782C11.2835 12.3655 11.25 12.2382 11.25 12.1087V7.60874C11.25 7.40982 11.329 7.21906 11.4697 7.07841C11.6103 6.93775 11.8011 6.85874 12 6.85874C12.1989 6.85874 12.3897 6.93775 12.5303 7.07841C12.671 7.21906 12.75 7.40982 12.75 7.60874ZM21 5.35874C20.8011 5.35874 20.6103 5.43775 20.4697 5.57841C20.329 5.71906 20.25 5.90982 20.25 6.10874V7.79624C19.6547 7.10624 19.0472 6.44155 18.3638 5.74967C17.113 4.49877 15.5213 3.6442 13.7877 3.29272C12.054 2.94125 10.2552 3.10847 8.616 3.77349C6.97682 4.4385 5.56996 5.57182 4.5712 7.03184C3.57245 8.49186 3.02609 10.2138 3.0004 11.9826C2.97471 13.7513 3.47083 15.4884 4.42676 16.9769C5.38269 18.4653 6.75604 19.639 8.37522 20.3513C9.99439 21.0636 11.7876 21.283 13.5307 20.9821C15.2739 20.6811 16.8897 19.8731 18.1763 18.659C18.2479 18.5913 18.3055 18.5102 18.3458 18.4202C18.3861 18.3302 18.4083 18.2332 18.4111 18.1346C18.4138 18.0361 18.3972 17.938 18.362 17.8458C18.3269 17.7537 18.274 17.6695 18.2063 17.5978C18.1385 17.5261 18.0574 17.4685 17.9674 17.4282C17.8774 17.388 17.7804 17.3658 17.6819 17.363C17.5833 17.3602 17.4852 17.3769 17.3931 17.412C17.301 17.4471 17.2167 17.5001 17.145 17.5678C16.0726 18.5785 14.7261 19.2509 13.2738 19.5009C11.8215 19.751 10.3277 19.5676 8.97902 18.9738C7.6303 18.38 6.4864 17.402 5.69018 16.1619C4.89396 14.9219 4.48069 13.4748 4.50199 12.0012C4.52329 10.5277 4.97822 9.09316 5.80995 7.87665C6.64169 6.66014 7.81338 5.71562 9.1787 5.16103C10.544 4.60644 12.0425 4.46636 13.4869 4.75829C14.9314 5.05022 16.2578 5.76121 17.3006 6.80249C18.0638 7.57499 18.7322 8.31936 19.4063 9.10874H17.25C17.0511 9.10874 16.8603 9.18775 16.7197 9.32841C16.579 9.46906 16.5 9.65982 16.5 9.85874C16.5 10.0576 16.579 10.2484 16.7197 10.3891C16.8603 10.5297 17.0511 10.6087 17.25 10.6087H21C21.1989 10.6087 21.3897 10.5297 21.5303 10.3891C21.671 10.2484 21.75 10.0576 21.75 9.85874V6.10874C21.75 5.90982 21.671 5.71906 21.5303 5.57841C21.3897 5.43775 21.1989 5.35874 21 5.35874Z" fill="#14121B"/>
</svg>
