<svg width="20" height="20" viewBox="0 0 20 20" fill="none" xmlns="http://www.w3.org/2000/svg">
<path d="M19.6876 10C19.6922 11.5563 19.187 13.0713 18.2493 14.3133C18.0981 14.507 17.8769 14.6335 17.6334 14.6658C17.3898 14.698 17.1433 14.6334 16.9469 14.4857C16.7506 14.3381 16.62 14.1193 16.5833 13.8763C16.5466 13.6334 16.6068 13.3858 16.7508 13.1868C17.2557 12.5133 17.5933 11.7294 17.7358 10.8999C17.8784 10.0703 17.8217 9.21879 17.5706 8.41541C17.3195 7.61203 16.8811 6.87981 16.2915 6.27909C15.702 5.67837 14.9781 5.22634 14.1795 4.96025C13.381 4.69415 12.5306 4.62161 11.6986 4.7486C10.8665 4.87559 10.0765 5.19847 9.39368 5.69065C8.71086 6.18282 8.15476 6.83019 7.7712 7.57943C7.38764 8.32867 7.1876 9.15832 7.18756 10C7.18756 10.2487 7.08878 10.4871 6.91297 10.6629C6.73715 10.8388 6.4987 10.9375 6.25006 10.9375C6.00142 10.9375 5.76296 10.8388 5.58714 10.6629C5.41133 10.4871 5.31256 10.2487 5.31256 10C5.3121 9.4745 5.36948 8.95051 5.48365 8.43753C4.57197 8.45628 3.70508 8.83643 3.07368 9.49435C2.44228 10.1523 2.0981 11.0341 2.11685 11.9457C2.1356 12.8574 2.51575 13.7243 3.17367 14.3557C3.83158 14.9871 4.71337 15.3313 5.62506 15.3125H7.50006C7.7487 15.3125 7.98715 15.4113 8.16297 15.5871C8.33878 15.7629 8.43756 16.0014 8.43756 16.25C8.43756 16.4987 8.33878 16.7371 8.16297 16.9129C7.98715 17.0888 7.7487 17.1875 7.50006 17.1875H5.62506C4.9038 17.1884 4.18992 17.0424 3.52692 16.7585C2.86392 16.4745 2.26569 16.0585 1.76868 15.5358C1.27167 15.0131 0.886301 14.3947 0.636052 13.7183C0.385802 13.0418 0.275917 12.3215 0.313092 11.6012C0.350267 10.8809 0.533724 10.1757 0.852283 9.52865C1.17084 8.88156 1.61783 8.30611 2.166 7.83737C2.71418 7.36864 3.35206 7.01644 4.04077 6.80223C4.72948 6.58803 5.4546 6.51631 6.17193 6.59144C6.93082 5.18233 8.13831 4.06683 9.60301 3.42173C11.0677 2.77664 12.7058 2.63886 14.2577 3.03023C15.8096 3.42161 17.1864 4.31975 18.17 5.5823C19.1536 6.84485 19.6877 8.39957 19.6876 10ZM12.5383 9.33675C12.4512 9.24935 12.3477 9.18 12.2338 9.13269C12.1198 9.08537 11.9977 9.06101 11.8743 9.06101C11.7509 9.06101 11.6287 9.08537 11.5148 9.13269C11.4008 9.18 11.2973 9.24935 11.2102 9.33675L8.71021 11.8368C8.62301 11.924 8.55383 12.0275 8.50664 12.1414C8.45944 12.2554 8.43515 12.3775 8.43515 12.5008C8.43515 12.6241 8.45944 12.7463 8.50664 12.8602C8.55383 12.9741 8.62301 13.0777 8.71021 13.1649C8.79742 13.2521 8.90095 13.3213 9.01489 13.3685C9.12883 13.4156 9.25095 13.4399 9.37427 13.4399C9.4976 13.4399 9.61972 13.4156 9.73366 13.3685C9.8476 13.3213 9.95113 13.2521 10.0383 13.1649L10.9376 12.2657V16.25C10.9376 16.4987 11.0363 16.7371 11.2121 16.9129C11.388 17.0888 11.6264 17.1875 11.8751 17.1875C12.1237 17.1875 12.3622 17.0888 12.538 16.9129C12.7138 16.7371 12.8126 16.4987 12.8126 16.25V12.2657L13.7118 13.1657C13.8879 13.3418 14.1268 13.4407 14.3758 13.4407C14.6249 13.4407 14.8638 13.3418 15.0399 13.1657C15.216 12.9895 15.315 12.7507 15.315 12.5016C15.315 12.2525 15.216 12.0137 15.0399 11.8375L12.5383 9.33675Z" fill="#3C79FE"/>
</svg>
