<svg width="40" height="40" viewBox="0 0 40 40" fill="none" xmlns="http://www.w3.org/2000/svg">
<path d="M25.0001 5.625C22.4052 5.62626 19.8589 6.32921 17.6309 7.65942C15.4029 8.98963 13.576 10.8976 12.3438 13.1813C10.9102 13.0331 9.46143 13.1783 8.08567 13.6077C6.7099 14.0372 5.4359 14.7421 4.34118 15.6796C3.24645 16.617 2.35389 17.7673 1.71779 19.0606C1.08169 20.3539 0.715354 21.7631 0.641074 23.2024C0.566795 24.6417 0.786121 26.0811 1.28571 27.433C1.7853 28.7849 2.55471 30.021 3.54712 31.0662C4.53953 32.1113 5.7342 32.9436 7.05844 33.5124C8.38268 34.0813 9.80881 34.3747 11.2501 34.375H25.0001C28.8125 34.375 32.4689 32.8605 35.1647 30.1647C37.8606 27.4688 39.3751 23.8125 39.3751 20C39.3751 16.1875 37.8606 12.5312 35.1647 9.83534C32.4689 7.1395 28.8125 5.625 25.0001 5.625ZM25.0001 30.625H11.2501C9.42669 30.6627 7.66303 29.9745 6.34705 28.7119C5.03108 27.4493 4.27058 25.7156 4.23287 23.8922C4.19516 22.0688 4.88332 20.3052 6.14597 18.9892C7.40862 17.6732 9.14232 16.9127 10.9657 16.875C10.7381 17.9011 10.6238 18.949 10.6251 20C10.6251 20.4973 10.8226 20.9742 11.1742 21.3258C11.5259 21.6775 12.0028 21.875 12.5001 21.875C12.9973 21.875 13.4743 21.6775 13.8259 21.3258C14.1775 20.9742 14.3751 20.4973 14.3751 20C14.3751 17.8986 14.9982 15.8443 16.1657 14.0971C17.3332 12.3498 18.9926 10.988 20.934 10.1838C22.8755 9.3796 25.0118 9.16919 27.0729 9.57916C29.1339 9.98912 31.0271 11.0011 32.5131 12.487C33.999 13.9729 35.0109 15.8661 35.4209 17.9272C35.8309 19.9882 35.6205 22.1245 34.8163 24.066C34.0121 26.0075 32.6503 27.6669 30.903 28.8344C29.1557 30.0019 27.1015 30.625 25.0001 30.625Z" fill="#858585"/>
</svg>
