<svg width="80" height="80" viewBox="0 0 80 80" fill="none" xmlns="http://www.w3.org/2000/svg">
<g clip-path="url(#clip0_669_2945)">
<path d="M71.2511 19.3481H64.0859V7.14453H71.2511C73.218 7.14453 74.8125 8.73906 74.8125 10.7059V15.7869C74.8125 17.7538 73.218 19.3481 71.2511 19.3481Z" fill="#ADC9FC"/>
<path d="M71.2511 31.5517H64.0859V19.3481H71.2511C73.218 19.3481 74.8125 20.9427 74.8125 22.9095V27.9905C74.8125 29.9574 73.218 31.5517 71.2511 31.5517Z" fill="#BFE19F"/>
<path d="M71.2511 43.7555H64.0859V31.5518H71.2511C73.218 31.5518 74.8125 33.1463 74.8125 35.1132V40.1941C74.8125 42.161 73.218 43.7555 71.2511 43.7555Z" fill="#ADC9FC"/>
<path d="M71.2511 55.959H64.0859V43.7554H71.2511C73.218 43.7554 74.8125 45.3499 74.8125 47.3168V52.3977C74.8125 54.3644 73.218 55.959 71.2511 55.959Z" fill="#DD636E"/>
<path d="M69.6886 53.8623V75.5943H55.0469V55.3492L69.6886 53.8623Z" fill="#B08561"/>
<path d="M65.3892 72.3595C63.6545 69.6261 63.6545 66.1369 65.3892 63.4034L42.1497 59.0776H11.1172V75.5944H52.4711L65.3892 72.3595Z" fill="#F1F4F6"/>
<path d="M69.6883 4.40625V60.1687L16.1305 61.5031L12.9758 61.5938L5.18359 67.8812V12.1187C5.18359 6.08281 10.0945 1.17188 16.1305 1.17188H66.4555C68.2414 1.17188 69.6883 2.62031 69.6883 4.40625Z" fill="#D1A578"/>
<path d="M16.1305 1.17188V61.5031L12.9758 61.5938L5.18359 67.8812V12.1187C5.18359 6.08281 10.0945 1.17188 16.1305 1.17188Z" fill="#C0976F"/>
<path d="M66.4547 78.8284H16.13C10.0941 78.8284 5.18359 73.9177 5.18359 67.882C5.18359 61.8462 10.0942 56.9355 16.13 56.9355H66.4547C68.2406 56.9355 69.6883 58.3834 69.6883 60.1691C69.6883 61.9551 68.2405 63.4027 66.4547 63.4027H29.3747L23.7708 65.6424L18.1669 63.4027H16.13C13.6602 63.4027 11.6508 65.4121 11.6508 67.882C11.6508 70.3518 13.6602 72.3612 16.13 72.3612H66.4547C68.2406 72.3612 69.6883 73.809 69.6883 75.5948C69.6883 77.3805 68.2406 78.8284 66.4547 78.8284Z" fill="#C0976F"/>
<path d="M29.3758 63.4033V73.9939C29.3758 75.3346 27.8305 76.0877 26.7742 75.2596L24.7648 73.683C24.182 73.2252 23.3617 73.2252 22.7789 73.683L20.7695 75.2596C19.7148 76.0877 18.168 75.3346 18.168 73.9939V63.4033H29.3758Z" fill="#DD636E"/>
<path d="M18.168 63.4033H29.3758V67.8814H18.168V63.4033Z" fill="#DA4A54"/>
<path d="M43.7329 30.4913L35.7276 9.27813C35.7177 9.25219 35.7076 9.22641 35.697 9.20062C35.1831 7.95125 33.9787 7.14453 32.6279 7.14453C32.6268 7.14453 32.6256 7.14453 32.6245 7.14453C31.2724 7.14594 30.0681 7.95547 29.5562 9.20688C29.5476 9.22813 29.539 9.24938 29.5309 9.27094L21.4518 30.4831C20.8952 31.9444 21.6287 33.58 23.0898 34.1364C23.4215 34.2628 23.762 34.3225 24.0968 34.3225C25.2376 34.3225 26.3129 33.6278 26.7431 32.4983L28.0607 29.0387H37.1327L38.4352 32.4903C38.9873 33.9533 40.6206 34.6916 42.0837 34.1394C43.5466 33.5875 44.2851 31.9541 43.7329 30.4913ZM30.2174 23.3767L32.6177 17.0745L34.9962 23.3767H30.2174Z" fill="#F5DD81"/>
<path d="M62.2232 41.7118H53.094L64.2609 24.5733C64.8281 23.703 64.8729 22.5921 64.3779 21.6788C63.8831 20.7657 62.9276 20.1968 61.8888 20.1968H48.3113C46.7477 20.1968 45.4802 21.4643 45.4802 23.0279C45.4802 24.5915 46.7477 25.859 48.3113 25.859H56.6651L45.4982 42.9974C44.931 43.8677 44.8862 44.9787 45.3812 45.8919C45.876 46.8051 46.8315 47.374 47.8702 47.374H62.2232C63.7868 47.374 65.0543 46.1065 65.0543 44.5429C65.0543 42.9793 63.7868 41.7118 62.2232 41.7118Z" fill="#F5DD81"/>
<path d="M32.6208 15.9023C32.6202 15.9023 32.6197 15.9023 32.6191 15.9023C32.1328 15.9023 31.6971 16.2027 31.5239 16.6572L29.1236 22.9594C28.9864 23.3195 29.0352 23.7242 29.2538 24.0416C29.4725 24.3589 29.8331 24.5484 30.2186 24.5484H34.9972C35.3819 24.5484 35.7424 24.3595 35.9611 24.0431C36.1799 23.7266 36.2294 23.3228 36.0936 22.9628L33.7152 16.6606C33.5435 16.2048 33.1078 15.9031 32.6208 15.9023ZM31.9191 22.2047L32.6141 20.38L33.3027 22.2047H31.9191Z" fill="black"/>
<path d="M44.8309 30.0768L40.5324 18.6846C40.304 18.0792 39.6278 17.7732 39.0223 18.0018C38.4168 18.2303 38.111 18.9065 38.3395 19.512L42.6378 30.9037C42.9606 31.7606 42.5274 32.7201 41.6718 33.0428C41.257 33.1993 40.8062 33.1854 40.4023 33.0028C39.9987 32.8204 39.6903 32.4915 39.5339 32.0767L38.2307 28.6251C38.0585 28.169 37.622 27.8671 37.1343 27.8671H28.0624C27.576 27.8671 27.1403 28.1675 26.9673 28.6221L25.6506 32.0806C25.4064 32.7203 24.7826 33.1501 24.0985 33.1501C23.8973 33.1501 23.6993 33.1136 23.5089 33.0407C23.0945 32.8831 22.7664 32.5736 22.5849 32.1692C22.4037 31.765 22.3906 31.314 22.5484 30.9L30.6271 9.68996L30.6351 9.66793C30.6378 9.66168 30.6404 9.65543 30.6429 9.64918C30.9732 8.84012 31.7524 8.31668 32.6298 8.31559C33.5029 8.31559 34.2821 8.83777 34.6146 9.64527L36.7068 15.187C36.9351 15.7925 37.6112 16.0984 38.217 15.8698C38.8224 15.6414 39.1282 14.9653 38.8998 14.3596L36.8264 8.86434C36.822 8.85277 36.8174 8.84137 36.8128 8.82996L36.7823 8.75371C36.0862 7.06355 34.4562 5.97168 32.6253 5.97168C30.797 5.97371 29.1692 7.06621 28.4759 8.75574C28.4637 8.7848 28.4521 8.81465 28.4376 8.85309L20.3579 30.0656C19.9774 31.065 20.0089 32.1525 20.4464 33.1279C20.884 34.1039 21.6757 34.8507 22.6742 35.2306C23.1312 35.4051 23.6104 35.4937 24.0985 35.4937C25.7481 35.4937 27.2517 34.4579 27.8406 32.9154L28.8703 30.2109H36.3243L37.341 32.9042C37.7184 33.9045 38.4628 34.6981 39.437 35.1384C39.9634 35.3764 40.5228 35.4959 41.0837 35.4959C41.5612 35.4959 42.0398 35.4093 42.4996 35.2356C44.5634 34.457 45.6092 32.1431 44.8309 30.0768Z" fill="black"/>
<path d="M62.2236 40.5401H55.2568L65.2433 25.2133C66.046 23.9815 66.1094 22.4132 65.409 21.1205C64.7085 19.8279 63.3599 19.0249 61.8896 19.0249H48.3121C46.1049 19.0249 44.3091 20.8207 44.3091 23.0279C44.3091 25.2351 46.1049 27.0308 48.3121 27.0308H54.5035L44.5169 42.3577C43.7143 43.5896 43.6508 45.1579 44.3515 46.4505C45.0519 47.743 46.4005 48.5462 47.8707 48.5462H62.2236C64.4308 48.5462 66.2266 46.7504 66.2266 44.5432C66.2266 42.336 64.431 40.5401 62.2236 40.5401ZM62.2236 46.2022H47.8707C47.2613 46.2022 46.7022 45.8694 46.4119 45.3337C46.1216 44.7979 46.1479 44.1477 46.4805 43.6371L57.6475 26.4987C57.8822 26.1383 57.901 25.6785 57.696 25.3005C57.4911 24.9226 57.0957 24.6871 56.6657 24.6871H48.3119C47.3971 24.6871 46.6527 23.9427 46.6527 23.0279C46.6527 22.113 47.3971 21.3687 48.3119 21.3687H61.8894C62.4988 21.3687 63.0579 21.7015 63.3482 22.2372C63.6385 22.7732 63.6122 23.4232 63.2796 23.9338L52.1127 41.0721C51.878 41.4324 51.8593 41.8923 52.0643 42.2702C52.2691 42.6482 52.6646 42.8837 53.0946 42.8837H62.2238C63.1386 42.8837 63.883 43.628 63.883 44.5429C63.883 45.4577 63.1386 46.2022 62.2236 46.2022Z" fill="black"/>
<path d="M75.9855 15.7867V10.7058C75.9855 8.09594 73.8622 5.97266 71.2523 5.97266H70.8603V4.40547C70.8602 1.97625 68.8839 0 66.4547 0H16.13C9.44797 0 4.01172 5.43625 4.01172 12.1183V67.8817C4.01172 67.89 4.01281 67.8981 4.01297 67.9066C4.02672 74.5772 9.45656 80 16.1297 80H55.2656C55.9128 80 56.4375 79.4753 56.4375 78.8281C56.4375 78.1809 55.9128 77.6562 55.2656 77.6562H16.1297C10.7406 77.6562 6.35625 73.2712 6.35625 67.8812C6.35625 62.4922 10.7406 58.1078 16.1297 58.1078H66.4547C67.588 58.1078 68.51 59.0259 68.5166 60.1567V60.1689V60.1809C68.51 61.3127 67.588 62.2314 66.4547 62.2314H16.1297C13.0142 62.2314 10.4797 64.7659 10.4797 67.8814C10.4797 70.9977 13.0142 73.533 16.1297 73.533H16.9953V73.9934C16.9953 75.0664 17.5947 76.0245 18.5595 76.4938C19.5242 76.9631 20.6481 76.8433 21.4923 76.1813L23.5013 74.6053C23.6602 74.4806 23.8819 74.4808 24.0406 74.6053L26.0497 76.1814C26.552 76.5755 27.1534 76.7775 27.7616 76.7775C28.1752 76.7775 28.5919 76.6841 28.9823 76.4941C29.9472 76.0247 30.5466 75.0666 30.5466 73.9938V73.5333H66.4545C67.5878 73.5333 68.5098 74.4514 68.5164 75.5822V75.595C68.5164 75.5969 68.5167 75.5987 68.5167 75.6006C68.5131 76.735 67.5897 77.6567 66.4545 77.6567H59.953C59.3058 77.6567 58.7811 78.1814 58.7811 78.8286C58.7811 79.4758 59.3058 80.0005 59.953 80.0005H66.4545C68.8842 80.0005 70.8608 78.0239 70.8608 75.5942C70.8608 75.5861 70.8602 75.5781 70.8602 75.5702V57.1308H71.2522C73.862 57.1308 75.9853 55.0075 75.9853 52.3977V47.3167C75.9853 45.8978 75.3569 44.6236 74.3647 43.7555C75.3569 42.8872 75.9853 41.6131 75.9853 40.1942V35.1133C75.9853 33.6944 75.3569 32.4202 74.3647 31.552C75.3569 30.6838 75.9853 29.4097 75.9853 27.9908V22.9094C75.9853 21.4905 75.3569 20.2163 74.3647 19.3481C75.3569 18.4797 75.9855 17.2056 75.9855 15.7867ZM14.9581 12.7606C11.5439 13.0898 8.54141 14.8423 6.54813 17.4152C7.37234 13.323 10.7603 10.1503 14.9581 9.64609V12.7606ZM6.35547 12.1183C6.35547 7.12531 10.1192 2.99766 14.9581 2.41641V7.28734C11.4325 7.62734 8.345 9.48438 6.35547 12.1959V12.1183ZM6.35547 24.8213C6.35547 19.8283 10.1192 15.7006 14.9581 15.1194V45.235C11.4325 45.575 8.34484 47.432 6.35547 50.1436V24.8213ZM6.35547 60.7305V57.2956C6.35547 52.3027 10.1192 48.175 14.9581 47.5938V55.8216C11.4325 56.1616 8.34484 58.0187 6.35547 60.7305ZM66.4545 55.7641H17.3019V2.34375H66.4547C67.5916 2.34375 68.5164 3.26859 68.5164 4.40547V56.2777C67.9008 55.9503 67.1992 55.7641 66.4545 55.7641ZM16.1297 71.1891C14.3066 71.1891 12.8234 69.7052 12.8234 67.8812C12.8234 66.0581 14.3066 64.575 16.1297 64.575H16.9953L16.9955 71.1891H16.1297ZM27.9572 74.3861C27.8655 74.4309 27.6837 74.4839 27.4964 74.337L25.4873 72.7609C24.4767 71.9681 23.0655 71.9683 22.0548 72.7609L20.0459 74.337C19.8589 74.4837 19.6769 74.4308 19.5852 74.3861C19.4933 74.3414 19.3394 74.2309 19.3394 73.9933L19.3392 64.575H28.203L28.2031 73.9933C28.203 74.2311 28.0489 74.3416 27.9572 74.3861ZM30.5464 64.575H63.5102C62.7269 66.7039 62.7269 69.0602 63.5105 71.1891H30.5466L30.5464 64.575ZM66.4545 71.1891H66.0692C65 69.123 64.9998 66.6411 66.0689 64.575H66.4545C67.1992 64.575 67.9008 64.3886 68.5164 64.0612V71.7028C67.9008 71.3753 67.1992 71.1891 66.4545 71.1891ZM73.6417 47.3166V52.3975C73.6417 53.715 72.5698 54.7869 71.2523 54.7869H70.8608V44.927H71.2523C72.5697 44.9272 73.6417 45.9991 73.6417 47.3166ZM73.6417 35.113V40.1939C73.6417 41.5114 72.5698 42.5833 71.2523 42.5833H70.8608V32.7234H71.2523C72.5697 32.7236 73.6417 33.7955 73.6417 35.113ZM73.6417 22.9094V27.9905C73.6417 29.308 72.5698 30.3798 71.2523 30.3798H70.8608V20.5198H71.2523C72.5697 20.5198 73.6417 21.5919 73.6417 22.9094ZM70.8606 18.1761V8.31625H71.2522C72.5697 8.31625 73.6416 9.38812 73.6416 10.7056V15.7866C73.6416 17.1041 72.5697 18.1759 71.2522 18.1759H70.8606V18.1761Z" fill="black"/>
</g>
<defs>
<clipPath id="clip0_669_2945">
<rect width="80" height="80" fill="white"/>
</clipPath>
</defs>
</svg>
