<svg width="41" height="40" viewBox="0 0 41 40" fill="none" xmlns="http://www.w3.org/2000/svg">
<path d="M35.6666 9.375H5.66663C4.83782 9.375 4.04297 9.70424 3.45692 10.2903C2.87087 10.8763 2.54163 11.6712 2.54163 12.5V27.5C2.54163 28.3288 2.87087 29.1237 3.45692 29.7097C4.04297 30.2958 4.83782 30.625 5.66663 30.625H35.6666C36.4954 30.625 37.2903 30.2958 37.8763 29.7097C38.4624 29.1237 38.7916 28.3288 38.7916 27.5V12.5C38.7916 11.6712 38.4624 10.8763 37.8763 10.2903C37.2903 9.70424 36.4954 9.375 35.6666 9.375ZM35.0416 26.875H6.29163V13.125H35.0416V26.875ZM26.2916 20C26.2916 19.5055 26.4382 19.0222 26.713 18.6111C26.9877 18.2 27.3781 17.8795 27.8349 17.6903C28.2917 17.5011 28.7944 17.4516 29.2794 17.548C29.7643 17.6445 30.2098 17.8826 30.5594 18.2322C30.909 18.5819 31.1471 19.0273 31.2436 19.5123C31.3401 19.9972 31.2905 20.4999 31.1013 20.9567C30.9121 21.4135 30.5917 21.804 30.1806 22.0787C29.7694 22.3534 29.2861 22.5 28.7916 22.5C28.1286 22.5 27.4927 22.2366 27.0239 21.7678C26.555 21.2989 26.2916 20.663 26.2916 20Z" fill="#858585"/>
</svg>
