<svg width="24" height="25" viewBox="0 0 24 25" fill="none" xmlns="http://www.w3.org/2000/svg">
<mask id="mask0_702_10255" style="mask-type:luminance" maskUnits="userSpaceOnUse" x="2" y="3" width="21" height="21">
<path fill-rule="evenodd" clip-rule="evenodd" d="M2 3.5H22.4725V23.001H2V3.5Z" fill="white"/>
</mask>
<g mask="url(#mask0_702_10255)">
<path fill-rule="evenodd" clip-rule="evenodd" d="M3.82371 12.6231C5.22571 16.9851 10.7647 20.5121 12.2367 21.3851C13.7137 20.5031 19.2927 16.9371 20.6497 12.6271C21.5407 9.84112 20.7137 6.31212 17.4277 5.25312C15.8357 4.74212 13.9787 5.05312 12.6967 6.04512C12.4287 6.25112 12.0567 6.25512 11.7867 6.05112C10.4287 5.03012 8.65471 4.73112 7.03771 5.25312C3.75671 6.31112 2.93271 9.84012 3.82371 12.6231ZM12.2377 23.0011C12.1137 23.0011 11.9907 22.9711 11.8787 22.9101C11.5657 22.7391 4.19271 18.6751 2.39571 13.0811C2.39471 13.0811 2.39471 13.0801 2.39471 13.0801C1.26671 9.55812 2.52271 5.13212 6.57771 3.82512C8.48171 3.20912 10.5567 3.48012 12.2347 4.53912C13.8607 3.51112 16.0207 3.22712 17.8867 3.82512C21.9457 5.13412 23.2057 9.55912 22.0787 13.0801C20.3397 18.6101 12.9127 22.7351 12.5977 22.9081C12.4857 22.9701 12.3617 23.0011 12.2377 23.0011Z" fill="black"/>
</g>
<path fill-rule="evenodd" clip-rule="evenodd" d="M18.1537 11.1243C17.7667 11.1243 17.4387 10.8273 17.4067 10.4353C17.3407 9.61329 16.7907 8.91929 16.0077 8.66629C15.6127 8.53829 15.3967 8.11529 15.5237 7.72229C15.6527 7.32829 16.0717 7.11429 16.4677 7.23829C17.8307 7.67929 18.7857 8.88629 18.9027 10.3133C18.9357 10.7263 18.6287 11.0883 18.2157 11.1213C18.1947 11.1233 18.1747 11.1243 18.1537 11.1243Z" fill="black"/>
</svg>
