<svg width="54" height="54" viewBox="0 0 54 54" fill="none" xmlns="http://www.w3.org/2000/svg">
<rect width="54" height="54" rx="4" fill="#3C79FE"/>
<path d="M47.25 27C47.25 27.4475 47.0722 27.8768 46.7557 28.1932C46.4393 28.5097 46.01 28.6875 45.5625 28.6875H21.9375C21.4899 28.6875 21.0607 28.5097 20.7442 28.1932C20.4278 27.8768 20.25 27.4475 20.25 27C20.25 26.5524 20.4278 26.1232 20.7442 25.8067C21.0607 25.4903 21.4899 25.3125 21.9375 25.3125H45.5625C46.01 25.3125 46.4393 25.4903 46.7557 25.8067C47.0722 26.1232 47.25 26.5524 47.25 27ZM21.9375 15.1875H45.5625C46.01 15.1875 46.4393 15.0097 46.7557 14.6932C47.0722 14.3768 47.25 13.9475 47.25 13.5C47.25 13.0524 47.0722 12.6232 46.7557 12.3067C46.4393 11.9903 46.01 11.8125 45.5625 11.8125H21.9375C21.4899 11.8125 21.0607 11.9903 20.7442 12.3067C20.4278 12.6232 20.25 13.0524 20.25 13.5C20.25 13.9475 20.4278 14.3768 20.7442 14.6932C21.0607 15.0097 21.4899 15.1875 21.9375 15.1875ZM45.5625 38.8125H21.9375C21.4899 38.8125 21.0607 38.9903 20.7442 39.3067C20.4278 39.6232 20.25 40.0524 20.25 40.5C20.25 40.9475 20.4278 41.3768 20.7442 41.6932C21.0607 42.0097 21.4899 42.1875 21.9375 42.1875H45.5625C46.01 42.1875 46.4393 42.0097 46.7557 41.6932C47.0722 41.3768 47.25 40.9475 47.25 40.5C47.25 40.0524 47.0722 39.6232 46.7557 39.3067C46.4393 38.9903 46.01 38.8125 45.5625 38.8125ZM9.19263 11.6353L10.125 11.167V21.9375C10.125 22.385 10.3028 22.8143 10.6192 23.1307C10.9357 23.4472 11.3649 23.625 11.8125 23.625C12.26 23.625 12.6892 23.4472 13.0057 23.1307C13.3222 22.8143 13.5 22.385 13.5 21.9375V8.43749C13.5002 8.14969 13.4268 7.86663 13.2867 7.6152C13.1467 7.36377 12.9447 7.15233 12.6999 7.00098C12.4551 6.84963 12.1757 6.7634 11.8882 6.75048C11.6007 6.73756 11.3147 6.79839 11.0573 6.92718L7.68232 8.61468C7.28176 8.81496 6.97716 9.16615 6.83554 9.59101C6.76542 9.80138 6.73742 10.0235 6.75314 10.2447C6.76886 10.4659 6.82799 10.6818 6.92716 10.8801C7.02633 11.0785 7.16359 11.2553 7.33111 11.4006C7.49863 11.5459 7.69313 11.6568 7.9035 11.7269C8.32835 11.8685 8.79207 11.8356 9.19263 11.6353ZM16.8265 33.0581C16.7331 32.3898 16.5057 31.7472 16.1577 31.169C15.8097 30.5908 15.3484 30.089 14.8015 29.6937C13.7061 28.8983 12.3455 28.5573 11.0045 28.7421C9.66346 28.9268 8.44583 29.6231 7.60638 30.6851C7.28554 31.097 7.03142 31.5569 6.85333 32.0477C6.76034 32.259 6.71167 32.4871 6.71035 32.7179C6.70904 32.9488 6.75509 33.1774 6.84567 33.3897C6.93625 33.6021 7.06942 33.7935 7.23696 33.9523C7.40449 34.1111 7.60283 34.2339 7.81969 34.3129C8.03656 34.392 8.26734 34.4258 8.49777 34.4121C8.7282 34.3984 8.95338 34.3376 9.15937 34.2335C9.36536 34.1293 9.54779 33.984 9.69537 33.8065C9.84296 33.629 9.95256 33.4231 10.0174 33.2015C10.0765 33.0397 10.1604 32.8881 10.2663 32.7523C10.564 32.3813 10.9932 32.1395 11.4647 32.077C11.9361 32.0146 12.4135 32.1363 12.7975 32.4169C12.9823 32.5475 13.1385 32.7144 13.2567 32.9073C13.3749 33.1002 13.4527 33.3151 13.4852 33.5391C13.515 33.7541 13.501 33.973 13.4441 34.1825C13.3872 34.392 13.2885 34.5878 13.154 34.7583C13.1479 34.7656 13.1423 34.7734 13.1372 34.7815L7.08536 42.8646C6.89783 43.1155 6.78381 43.4136 6.75607 43.7255C6.72833 44.0375 6.78797 44.3511 6.9283 44.6311C7.06864 44.9111 7.28413 45.1465 7.55067 45.311C7.8172 45.4755 8.12426 45.5626 8.43747 45.5625H15.1875C15.635 45.5625 16.0642 45.3847 16.3807 45.0682C16.6972 44.7518 16.875 44.3225 16.875 43.875C16.875 43.4274 16.6972 42.9982 16.3807 42.6817C16.0642 42.3653 15.635 42.1875 15.1875 42.1875H11.8125L15.8372 36.8023C16.2452 36.2767 16.5431 35.6742 16.7131 35.0309C16.8831 34.3876 16.9216 33.7167 16.8265 33.0581Z" fill="white"/>
</svg>
