<svg width="24" height="25" viewBox="0 0 24 25" fill="none" xmlns="http://www.w3.org/2000/svg">
<path d="M21 12.1089C21 12.3078 20.921 12.4986 20.7803 12.6392C20.6397 12.7799 20.4489 12.8589 20.25 12.8589H3.75C3.55109 12.8589 3.36032 12.7799 3.21967 12.6392C3.07902 12.4986 3 12.3078 3 12.1089C3 11.91 3.07902 11.7192 3.21967 11.5786C3.36032 11.4379 3.55109 11.3589 3.75 11.3589H20.25C20.4489 11.3589 20.6397 11.4379 20.7803 11.5786C20.921 11.7192 21 11.91 21 12.1089ZM3.75 6.85889H20.25C20.4489 6.85889 20.6397 6.77987 20.7803 6.63922C20.921 6.49856 21 6.3078 21 6.10889C21 5.90997 20.921 5.71921 20.7803 5.57856C20.6397 5.4379 20.4489 5.35889 20.25 5.35889H3.75C3.55109 5.35889 3.36032 5.4379 3.21967 5.57856C3.07902 5.71921 3 5.90997 3 6.10889C3 6.3078 3.07902 6.49856 3.21967 6.63922C3.36032 6.77987 3.55109 6.85889 3.75 6.85889ZM20.25 17.3589H3.75C3.55109 17.3589 3.36032 17.4379 3.21967 17.5786C3.07902 17.7192 3 17.91 3 18.1089C3 18.3078 3.07902 18.4986 3.21967 18.6392C3.36032 18.7799 3.55109 18.8589 3.75 18.8589H20.25C20.4489 18.8589 20.6397 18.7799 20.7803 18.6392C20.921 18.4986 21 18.3078 21 18.1089C21 17.91 20.921 17.7192 20.7803 17.5786C20.6397 17.4379 20.4489 17.3589 20.25 17.3589Z" fill="#14121B"/>
</svg>
