<svg width="32" height="32" viewBox="0 0 32 32" fill="none" xmlns="http://www.w3.org/2000/svg">
<rect x="1" y="1" width="30" height="30" rx="7" fill="#EFEFF0"/>
<rect x="1" y="1" width="30" height="30" rx="7" stroke="#AFB1B6" stroke-width="2"/>
<mask id="mask0_1328_14407" style="mask-type:luminance" maskUnits="userSpaceOnUse" x="6" y="6" width="20" height="20">
<path fill-rule="evenodd" clip-rule="evenodd" d="M6 6H25.9596V25.9498H6V6Z" fill="white"/>
</mask>
<g mask="url(#mask0_1328_14407)">
<path fill-rule="evenodd" clip-rule="evenodd" d="M11.65 7.5C9.129 7.5 7.5 9.227 7.5 11.899V20.051C7.5 22.724 9.129 24.45 11.65 24.45H20.3C22.827 24.45 24.46 22.724 24.46 20.051V11.899C24.46 9.227 22.827 7.5 20.3 7.5H11.65ZM20.3 25.95H11.65C8.27 25.95 6 23.579 6 20.051V11.899C6 8.371 8.27 6 11.65 6H20.3C23.685 6 25.96 8.371 25.96 11.899V20.051C25.96 23.579 23.685 25.95 20.3 25.95Z" fill="#AFB1B6"/>
</g>
<path fill-rule="evenodd" clip-rule="evenodd" d="M9.28126 21.1809C9.09526 21.1809 8.91026 21.1129 8.76526 20.9749C8.46426 20.6909 8.45226 20.2149 8.73726 19.9159L10.2653 18.3029C11.0743 17.4439 12.4393 17.4019 13.3023 18.2119L14.2603 19.1839C14.5273 19.4539 14.9613 19.4589 15.2293 19.1949C15.3303 19.0759 17.5083 16.4309 17.5083 16.4309C17.9223 15.9289 18.5063 15.6189 19.1553 15.5549C19.8053 15.4979 20.4363 15.6869 20.9393 16.0999C20.9823 16.1349 21.0213 16.1689 23.2173 18.4239C23.5063 18.7199 23.5013 19.1949 23.2043 19.4839C22.9083 19.7749 22.4323 19.7659 22.1433 19.4699C22.1433 19.4699 20.0943 17.3669 19.9483 17.2249C19.7933 17.0979 19.5443 17.0239 19.2993 17.0479C19.0503 17.0729 18.8263 17.1919 18.6673 17.3849C16.3433 20.2039 16.3153 20.2309 16.2773 20.2679C15.4193 21.1099 14.0343 21.0959 13.1913 20.2359C13.1913 20.2359 12.2613 19.2919 12.2453 19.2729C12.0143 19.0589 11.6023 19.0729 11.3553 19.3339L9.82526 20.9469C9.67726 21.1029 9.47926 21.1809 9.28126 21.1809Z" fill="#AFB1B6"/>
<path fill-rule="evenodd" clip-rule="evenodd" d="M12.5577 12.1289C12.0047 12.1289 11.5547 12.5789 11.5547 13.1329C11.5547 13.6869 12.0047 14.1379 12.5587 14.1379C13.1127 14.1379 13.5637 13.6869 13.5637 13.1329C13.5637 12.5799 13.1127 12.1299 12.5577 12.1289ZM12.5587 15.6379C11.1777 15.6379 10.0547 14.5139 10.0547 13.1329C10.0547 11.7519 11.1777 10.6289 12.5587 10.6289C13.9407 10.6299 15.0637 11.7539 15.0637 13.1329C15.0637 14.5139 13.9397 15.6379 12.5587 15.6379Z" fill="#AFB1B6"/>
</svg>
