<svg width="61" height="60" viewBox="0 0 61 60" fill="none" xmlns="http://www.w3.org/2000/svg">
<g clip-path="url(#clip0_635_9754)">
<path d="M45.3828 0V60H0.5V10.3102L10.8102 0L45.3828 0Z" fill="#00A6FF"/>
<path d="M22.9414 0H45.3828V60H22.9414V0Z" fill="#006EF5"/>
<path d="M60.4998 7.50684V54.1676L55.457 60H53.615L48.5723 54.1676V7.50684H60.4998Z" fill="#FF73AF"/>
<path d="M60.4999 7.50684V54.1676L55.4572 60H54.5361V7.50684H60.4999Z" fill="#FF318E"/>
<path d="M48.5723 15.7207H60.4998V19.2363H48.5723V15.7207Z" fill="#55FBFF"/>
<path d="M48.5723 44.4185H60.4998V47.9341H48.5723V44.4185Z" fill="#55FBFF"/>
<path d="M10.8079 0.00244141V10.3113H0.5V10.3104L10.8079 0.00244141Z" fill="#CAE8F9"/>
<path d="M11.3154 20.2402H34.568V23.7559H11.3154V20.2402Z" fill="white"/>
<path d="M11.3154 27.812H34.568V31.3276H11.3154V27.812Z" fill="white"/>
<path d="M11.3154 35.3848H34.568V38.9004H11.3154V35.3848Z" fill="white"/>
<path d="M11.3154 42.9561H34.568V46.4717H11.3154V42.9561Z" fill="white"/>
<path d="M54.5361 15.7207H60.4999V19.2363H54.5361V15.7207Z" fill="#00D9E0"/>
<path d="M54.5361 44.4185H60.4999V47.9341H54.5361V44.4185Z" fill="#00D9E0"/>
<path d="M22.9414 20.2402H34.5677V23.7559H22.9414V20.2402Z" fill="#CAE8F9"/>
<path d="M22.9414 27.8115H34.5677V31.3271H22.9414V27.8115Z" fill="#CAE8F9"/>
<path d="M22.9414 35.3843H34.5677V38.8999H22.9414V35.3843Z" fill="#CAE8F9"/>
<path d="M22.9414 42.9561H34.5677V46.4717H22.9414V42.9561Z" fill="#CAE8F9"/>
</g>
<defs>
<clipPath id="clip0_635_9754">
<rect width="60" height="60" fill="white" transform="translate(0.5)"/>
</clipPath>
</defs>
</svg>
