<svg width="29" height="28" viewBox="0 0 29 28" fill="none" xmlns="http://www.w3.org/2000/svg">
<path d="M25.6716 7.71526L20.7847 2.8273C20.5816 2.62407 20.3404 2.46287 20.0749 2.35288C19.8095 2.24289 19.5249 2.18628 19.2376 2.18628C18.9502 2.18628 18.6657 2.24289 18.4003 2.35288C18.1348 2.46287 17.8936 2.62407 17.6905 2.8273L4.20345 16.3154C3.99957 16.518 3.83794 16.759 3.72792 17.0244C3.61789 17.2899 3.56167 17.5746 3.56251 17.862V22.75C3.56251 23.3301 3.79298 23.8865 4.20321 24.2967C4.61345 24.707 5.16985 24.9375 5.75001 24.9375H10.638C10.9253 24.9382 11.21 24.882 11.4755 24.772C11.741 24.6619 11.982 24.5003 12.1845 24.2965L25.6716 10.8084C26.0817 10.3982 26.312 9.84187 26.312 9.26183C26.312 8.68178 26.0817 8.12548 25.6716 7.71526ZM10.4531 22.3125H6.18751V18.0468L15.375 8.85933L19.6406 13.125L10.4531 22.3125ZM21.5 11.2656L17.2344 6.99995L19.2403 4.99401L23.5059 9.25964L21.5 11.2656Z" fill="#858585"/>
</svg>
