<svg width="33" height="34" viewBox="0 0 33 34" fill="none" xmlns="http://www.w3.org/2000/svg">
<rect x="0.5" y="1" width="32" height="32" rx="4" stroke="#3C79FE"/>
<path d="M19.0791 7.32579C18.9529 7.26433 18.8121 7.23948 18.6726 7.25406C18.533 7.26865 18.4004 7.32208 18.2897 7.40829L11.7422 12.4998H7.5C7.10218 12.4998 6.72064 12.6579 6.43934 12.9392C6.15804 13.2205 6 13.602 6 13.9998V19.9998C6 20.3977 6.15804 20.7792 6.43934 21.0605C6.72064 21.3418 7.10218 21.4998 7.5 21.4998H11.7422L18.2897 26.5914C18.4005 26.6775 18.5332 26.7309 18.6728 26.7453C18.8124 26.7597 18.9533 26.7347 19.0793 26.6731C19.2054 26.6115 19.3117 26.5157 19.3861 26.3967C19.4604 26.2777 19.4999 26.1402 19.5 25.9998V7.99985C19.5 7.85934 19.4606 7.72166 19.3861 7.60248C19.3117 7.48331 19.2053 7.38743 19.0791 7.32579ZM7.5 13.9998H11.25V19.9998H7.5V13.9998ZM18 24.4661L12.75 20.3833V13.6164L18 9.5336V24.4661ZM23.0625 14.5211C23.6657 15.2059 23.9986 16.0872 23.9986 16.9998C23.9986 17.9125 23.6657 18.7938 23.0625 19.4786C22.93 19.6242 22.7456 19.7119 22.549 19.7227C22.3524 19.7335 22.1595 19.6666 22.0118 19.5364C21.8642 19.4062 21.7736 19.2231 21.7597 19.0268C21.7458 18.8304 21.8097 18.6364 21.9375 18.4867C22.2992 18.0759 22.4988 17.5473 22.4988 16.9998C22.4988 16.4524 22.2992 15.9238 21.9375 15.513C21.8097 15.3633 21.7458 15.1693 21.7597 14.9729C21.7736 14.7766 21.8642 14.5935 22.0118 14.4633C22.1595 14.3331 22.3524 14.2662 22.549 14.277C22.7456 14.2878 22.93 14.3755 23.0625 14.5211ZM27.75 16.9998C27.7511 18.845 27.0711 20.6257 25.8403 22.0005C25.7067 22.145 25.5216 22.2313 25.325 22.2406C25.1284 22.2499 24.936 22.1815 24.7893 22.0503C24.6426 21.919 24.5535 21.7353 24.541 21.5388C24.5286 21.3424 24.5939 21.1489 24.7228 21.0002C25.7066 19.9001 26.2505 18.4761 26.2505 17.0003C26.2505 15.5245 25.7066 14.1005 24.7228 13.0005C24.6553 12.9274 24.603 12.8416 24.5689 12.7481C24.5349 12.6547 24.5197 12.5553 24.5245 12.456C24.5292 12.3566 24.5536 12.2591 24.5963 12.1693C24.6391 12.0794 24.6993 11.999 24.7734 11.9326C24.8475 11.8663 24.9341 11.8153 25.0281 11.7827C25.1222 11.7502 25.2217 11.7366 25.321 11.7429C25.4203 11.7492 25.5173 11.7752 25.6065 11.8194C25.6957 11.8635 25.7751 11.925 25.8403 12.0002C27.0714 13.3744 27.7515 15.1549 27.75 16.9998Z" fill="#3C79FE"/>
</svg>
