<svg width="400" height="400" viewBox="0 0 400 400" fill="none" xmlns="http://www.w3.org/2000/svg">
<g clip-path="url(#clip0_635_9841)">
<path d="M239.221 117.338L228.848 109.56L263.856 65.4732C269.041 59.639 270.339 51.2123 267.097 44.0803C263.207 33.0578 250.889 27.8726 239.867 31.7631L235.98 33.0578L231.44 20.7406L235.331 19.4428C252.833 12.3139 272.931 21.3896 279.414 38.892C283.954 50.5634 282.007 63.5295 274.229 73.2541L239.221 117.338Z" fill="#E8821C"/>
<path d="M129.655 158.829L79.0887 152.995C59.6395 151.051 45.3755 132.897 47.3223 113.448C48.6171 99.8356 57.6959 88.8132 70.0131 83.628L75.8472 81.0322L80.3866 93.3526L74.5493 95.9452C62.8811 100.481 57.0469 114.096 61.5832 125.768C64.8247 133.546 71.9567 139.38 80.3866 140.029L130.953 145.863L129.655 158.829Z" fill="#E8821C"/>
<path d="M178.279 167.908L152.995 165.312C123.821 162.719 98.5381 143.919 87.5157 116.043L70.6622 73.2544C68.0665 66.7713 71.308 58.9904 77.7911 56.3978H78.44L215.233 7.12584C221.716 4.53325 229.497 8.42372 232.09 14.9068L246.351 57.6957C254.781 83.6279 249.592 112.153 231.441 132.897L213.935 152.995L283.306 334.521H309.238C314.423 334.521 319.611 337.762 320.906 342.951L324.796 352.675L229.497 390.276L225.607 380.551C223.66 375.366 224.958 370.178 228.848 366.287L247.649 348.136L178.279 167.908Z" fill="#F4A422"/>
<path d="M206.158 124.47L197.083 115.394C225.607 86.8692 196.434 39.541 196.434 38.892L207.453 31.7632C208.751 34.3558 241.815 88.8129 206.158 124.47Z" fill="#EDC17C"/>
<path d="M320.905 343.596C318.961 338.411 314.422 335.169 309.236 335.169H283.304L247.647 349.433L228.847 367.585C224.957 371.475 223.659 376.66 225.605 381.849L229.496 391.573L324.795 353.97L320.905 343.596Z" fill="#E8821C"/>
<path d="M307.939 264.505L270.987 165.312C268.394 158.829 261.262 154.941 254.13 157.534H253.481L182.168 188.651C178.277 190.598 175.685 193.84 174.39 197.727L169.202 223.659L7.125 288.49V379.253L195.134 301.456L243.108 307.293C245.704 307.293 248.296 307.293 250.24 305.995L301.456 280.712C307.293 277.471 309.885 270.988 307.939 264.505Z" fill="#EFCCBF"/>
<path d="M169.202 223.659L104.371 249.591L130.303 328.037L195.134 301.456L169.202 223.659Z" fill="#676B7F"/>
<path d="M331.277 35.6505C331.277 57.0466 313.775 74.5489 292.379 74.5489C313.775 74.5489 331.277 92.0545 331.277 113.447C331.277 92.0545 348.783 74.5489 370.176 74.5489C348.783 74.5489 331.277 57.0466 331.277 35.6505Z" fill="#F4C167"/>
<path d="M46.0234 165.312C46.0234 186.708 28.521 204.21 7.125 204.21C28.521 204.21 46.0234 221.716 46.0234 243.108C46.0234 221.716 63.5289 204.21 84.9218 204.21C63.5289 204.21 46.0234 186.708 46.0234 165.312Z" fill="#F4C167"/>
<path d="M357.211 165.312C357.211 186.708 339.709 204.21 318.312 204.21C339.709 204.21 357.211 221.716 357.211 243.108C357.211 221.716 374.716 204.21 396.109 204.21C374.716 204.21 357.211 186.708 357.211 165.312Z" fill="#F4C167"/>
<path d="M130.303 328.038L7.125 379.253V288.49L104.371 249.592L130.303 328.038Z" fill="#4A4A56"/>
<path d="M143.917 296.92L155.586 293.029L136.785 236.625L125.117 241.165L143.917 296.92Z" fill="#4A4A56"/>
<path d="M276.175 178.927L238.574 191.893L242.465 203.564L280.714 191.244L276.175 178.927Z" fill="#D8B4AD"/>
<path d="M288.491 211.991L251.539 224.308L255.43 235.98L293.03 223.659L288.491 211.991Z" fill="#D8B4AD"/>
<path d="M300.161 244.406L264.504 256.723L268.394 268.395L304.697 256.723L300.161 244.406Z" fill="#D8B4AD"/>
<path d="M239.221 117.338L228.848 109.56L263.856 65.4732C269.041 59.639 270.339 51.2123 267.097 44.0803C263.207 33.0578 250.889 27.8726 239.867 31.7631L235.98 33.0578L231.44 20.7406L235.331 19.4428C252.833 12.3139 272.931 21.3896 279.414 38.892C283.954 50.5634 282.007 63.5295 274.229 73.2541L239.221 117.338Z" fill="#E8821C"/>
<path d="M129.655 158.829L79.0887 152.995C59.6395 151.051 45.3755 132.897 47.3223 113.448C48.6171 99.8356 57.6959 88.8132 70.0131 83.628L75.8472 81.0322L80.3866 93.3526L74.5493 95.9452C62.8811 100.481 57.0469 114.096 61.5832 125.768C64.8247 133.546 71.9567 139.38 80.3866 140.029L130.953 145.863L129.655 158.829Z" fill="#E8821C"/>
<path d="M178.279 167.908L152.995 165.312C123.821 162.719 98.5381 143.919 87.5157 116.043L70.6622 73.2544C68.0665 66.7713 71.308 58.9904 77.7911 56.3978H78.44L215.233 7.12584C221.716 4.53325 229.497 8.42372 232.09 14.9068L246.351 57.6957C254.781 83.6279 249.592 112.153 231.441 132.897L213.935 152.995L283.306 334.521H309.238C314.423 334.521 319.611 337.762 320.906 342.951L324.796 352.675L229.497 390.276L225.607 380.551C223.66 375.366 224.958 370.178 228.848 366.287L247.649 348.136L178.279 167.908Z" fill="#F4A422"/>
<path d="M206.158 124.47L197.083 115.394C225.607 86.8692 196.434 39.541 196.434 38.892L207.453 31.7632C208.751 34.3558 241.815 88.8129 206.158 124.47Z" fill="#EDC17C"/>
<path d="M320.905 343.596C318.961 338.411 314.422 335.169 309.236 335.169H283.304L247.647 349.433L228.847 367.585C224.957 371.475 223.659 376.66 225.605 381.849L229.496 391.573L324.795 353.97L320.905 343.596Z" fill="#E8821C"/>
<path d="M307.939 264.505L270.987 165.312C268.394 158.829 261.262 154.941 254.13 157.534H253.481L182.168 188.651C178.277 190.598 175.685 193.84 174.39 197.727L169.202 223.659L7.125 288.49V379.253L195.134 301.456L243.108 307.293C245.704 307.293 248.296 307.293 250.24 305.995L301.456 280.712C307.293 277.471 309.885 270.988 307.939 264.505Z" fill="#EFCCBF"/>
<path d="M169.202 223.659L104.371 249.591L130.303 328.037L195.134 301.456L169.202 223.659Z" fill="#676B7F"/>
<path d="M331.277 35.6505C331.277 57.0466 313.775 74.5489 292.379 74.5489C313.775 74.5489 331.277 92.0545 331.277 113.447C331.277 92.0545 348.783 74.5489 370.176 74.5489C348.783 74.5489 331.277 57.0466 331.277 35.6505Z" fill="#F4C167"/>
<path d="M46.0234 165.312C46.0234 186.708 28.521 204.21 7.125 204.21C28.521 204.21 46.0234 221.716 46.0234 243.108C46.0234 221.716 63.5289 204.21 84.9218 204.21C63.5289 204.21 46.0234 186.708 46.0234 165.312Z" fill="#F4C167"/>
<path d="M357.211 165.312C357.211 186.708 339.709 204.21 318.312 204.21C339.709 204.21 357.211 221.716 357.211 243.108C357.211 221.716 374.716 204.21 396.109 204.21C374.716 204.21 357.211 186.708 357.211 165.312Z" fill="#F4C167"/>
<path d="M130.303 328.038L7.125 379.253V288.49L104.371 249.592L130.303 328.038Z" fill="#4A4A56"/>
<path d="M143.917 296.92L155.586 293.029L136.785 236.625L125.117 241.165L143.917 296.92Z" fill="#4A4A56"/>
<path d="M276.175 178.927L238.574 191.893L242.465 203.564L280.714 191.244L276.175 178.927Z" fill="#D8B4AD"/>
<path d="M288.491 211.991L251.539 224.308L255.43 235.98L293.03 223.659L288.491 211.991Z" fill="#D8B4AD"/>
<path d="M300.161 244.406L264.504 256.723L268.394 268.395L304.697 256.723L300.161 244.406Z" fill="#D8B4AD"/>
<path d="M324.794 113.447V119.93H337.76V113.447C337.76 95.296 352.024 81.032 370.176 81.032V68.0659C352.024 68.0659 337.76 53.805 337.76 35.6505V29.1675H324.794V35.6505C324.794 53.805 310.533 68.0659 292.379 68.0659V81.032C310.533 81.032 324.794 95.296 324.794 113.447ZM331.277 58.9902C335.168 65.4733 340.353 70.6616 346.836 74.5489C340.353 78.4394 335.168 83.6278 331.277 90.1108C327.387 83.6278 322.202 78.4394 315.719 74.5489C322.202 70.6616 327.387 65.4733 331.277 58.9902Z" fill="black"/>
<path d="M39.5403 243.108V249.592H52.5065V243.108C52.5065 224.957 66.7705 210.693 84.9218 210.693V197.727C66.7705 197.727 52.5065 183.466 52.5065 165.312V158.829H39.5403V165.312C39.5403 183.466 25.2795 197.727 7.125 197.727V210.693C25.2795 210.693 39.5403 224.957 39.5403 243.108ZM46.0234 188.651C49.9139 195.134 55.099 200.323 61.5821 204.21C55.099 208.101 49.9139 213.289 46.0234 219.772C42.1329 213.289 36.9477 208.101 30.4647 204.21C36.9477 200.323 42.1329 195.134 46.0234 188.651Z" fill="black"/>
<path d="M309.235 329.335H287.842L276.171 301.456L304.696 287.195C313.775 282.656 317.662 272.282 314.421 263.207L277.469 164.017C273.578 153.644 262.556 149.104 252.186 152.346C252.186 152.346 251.537 152.346 251.537 152.995L224.307 164.666L221.065 155.587L235.978 138.085C246.348 126.414 252.831 112.153 254.778 96.5939L273.578 73.9032C285.896 59.6392 283.303 38.2463 269.039 25.926C266.446 23.9823 263.854 22.0387 261.261 20.7408C254.129 17.4993 246.997 16.8503 239.219 18.7972L237.273 12.9599C234.031 2.58949 222.363 -2.59886 212.638 1.29161L75.845 50.5635C65.4714 54.454 60.2862 65.4733 64.1767 75.1979V75.8469L67.4182 84.2736C50.5616 92.0545 42.7807 111.504 48.6148 128.36C53.1542 141.326 64.8225 150.402 78.4376 152.346L108.909 155.587C121.226 164.666 136.136 170.5 151.049 171.795L172.442 173.742L176.332 183.466C171.793 186.059 168.552 190.598 167.257 196.433L162.717 218.474L4.53125 282.656L9.07066 294.973L99.8336 258.671L121.875 324.796L4.53125 373.419L9.71644 385.09L195.782 307.939L228.197 311.83L239.865 347.487L224.307 362.4C218.472 367.585 216.529 376.012 219.77 383.792L226.253 400L333.87 357.86L328.036 342.301C324.145 333.872 317.016 329.335 309.235 329.335ZM274.227 330.63L250.888 338.411L242.461 313.777C246.348 314.422 249.59 313.777 252.831 311.83L263.854 306.645L274.227 330.63ZM256.722 163.368C259.963 162.07 263.854 163.368 265.152 166.61L270.337 180.225L238.571 190.598L242.461 202.916L274.227 192.542L282.005 213.289L251.537 223.659L255.427 235.98L286.545 225.606L294.326 246.35L264.503 256.075L268.393 268.395L298.862 258.022L302.103 266.448C303.401 269.69 302.103 272.931 298.862 274.229L247.646 299.513C246.348 300.162 245.054 300.162 243.756 300.162L199.672 294.973L175.684 223.014L180.223 199.025C180.872 197.081 182.167 195.135 184.113 194.486L256.722 163.368ZM256.073 32.4091C266.446 36.9485 271.635 49.2657 267.095 60.2881C266.446 62.2318 265.152 63.5297 263.854 65.4733L256.073 75.1979C255.427 68.7149 254.129 62.8807 252.186 56.3977L243.756 31.1143C248.295 30.4654 252.186 31.1143 256.073 32.4091ZM61.581 125.119C57.6936 114.096 62.2299 102.428 72.6034 97.2397L81.6791 119.285C84.9206 127.062 89.46 134.843 94.6452 141.326L81.0302 140.029C71.9545 139.38 64.1767 133.546 61.581 125.119ZM153.642 159.478C127.061 156.885 103.721 140.029 93.9963 114.745L77.1428 71.9564C75.845 68.7149 77.1428 64.8244 80.3844 63.5297L217.175 14.2577C219.121 13.6088 220.416 13.6088 222.363 14.2577C223.658 14.9067 224.955 16.2014 225.604 18.1482L239.865 60.9371C247.646 84.9225 242.461 110.855 226.253 129.655L206.155 152.995L211.989 168.553L188.65 178.278L182.167 162.07L153.642 159.478ZM112.151 253.482L127.061 247.648L143.268 296.92L155.585 293.03L138.732 242.463L164.664 232.089L186.706 297.569L134.193 319.611L112.151 253.482ZM233.382 383.144L231.439 379.253C230.79 376.66 231.439 374.068 232.736 372.124L254.778 351.377L282.654 342.301H308.586C311.179 342.301 313.775 344.245 314.421 346.192L315.718 350.079L233.382 383.144Z" fill="black"/>
<path d="M363.694 165.312V158.829H350.728V165.312C350.728 183.466 336.467 197.727 318.312 197.727V210.693C336.467 210.693 350.728 224.957 350.728 243.108V249.592H363.694V243.108C363.694 224.957 377.958 210.693 396.109 210.693V197.727C377.958 197.727 363.694 183.466 363.694 165.312ZM357.211 219.772C353.32 213.289 348.135 208.101 341.652 204.21C348.135 200.323 353.32 195.134 357.211 188.651C361.101 195.134 366.287 200.323 372.77 204.21C366.287 208.101 361.101 213.289 357.211 219.772Z" fill="black"/>
<path d="M197.083 115.394L206.159 124.47C241.816 88.8131 208.751 34.356 206.808 32.4092L195.785 39.5412C196.434 39.5412 225.608 86.8695 197.083 115.394Z" fill="black"/>
</g>
<defs>
<clipPath id="clip0_635_9841">
<rect width="400" height="400" fill="white"/>
</clipPath>
</defs>
</svg>
