<svg width="24" height="24" viewBox="0 0 24 24" fill="none" xmlns="http://www.w3.org/2000/svg">
<path d="M16.1191 9.11906L13.237 12L16.1191 14.8809C16.2004 14.9622 16.2649 15.0587 16.3088 15.165C16.3528 15.2712 16.3755 15.385 16.3755 15.5C16.3755 15.615 16.3528 15.7288 16.3088 15.835C16.2649 15.9413 16.2004 16.0378 16.1191 16.1191C16.0378 16.2004 15.9413 16.2648 15.835 16.3088C15.7288 16.3528 15.615 16.3755 15.5 16.3755C15.385 16.3755 15.2712 16.3528 15.165 16.3088C15.0588 16.2648 14.9622 16.2004 14.8809 16.1191L12 13.237L9.11907 16.1191C9.03777 16.2004 8.94126 16.2648 8.83504 16.3088C8.72882 16.3528 8.61498 16.3755 8.5 16.3755C8.38503 16.3755 8.27119 16.3528 8.16497 16.3088C8.05875 16.2648 7.96224 16.2004 7.88094 16.1191C7.79965 16.0378 7.73516 15.9413 7.69116 15.835C7.64716 15.7288 7.62452 15.615 7.62452 15.5C7.62452 15.385 7.64716 15.2712 7.69116 15.165C7.73516 15.0587 7.79965 14.9622 7.88094 14.8809L10.763 12L7.88094 9.11906C7.71676 8.95488 7.62452 8.73219 7.62452 8.5C7.62452 8.26781 7.71676 8.04512 7.88094 7.88094C8.04513 7.71675 8.26781 7.62451 8.5 7.62451C8.7322 7.62451 8.95488 7.71675 9.11907 7.88094L12 10.763L14.8809 7.88094C14.9622 7.79964 15.0588 7.73515 15.165 7.69116C15.2712 7.64716 15.385 7.62451 15.5 7.62451C15.615 7.62451 15.7288 7.64716 15.835 7.69116C15.9413 7.73515 16.0378 7.79964 16.1191 7.88094C16.2004 7.96223 16.2649 8.05875 16.3088 8.16497C16.3528 8.27118 16.3755 8.38503 16.3755 8.5C16.3755 8.61497 16.3528 8.72882 16.3088 8.83503C16.2649 8.94125 16.2004 9.03777 16.1191 9.11906ZM23.375 12C23.375 14.2498 22.7079 16.449 21.458 18.3196C20.2081 20.1902 18.4315 21.6482 16.353 22.5091C14.2745 23.3701 11.9874 23.5953 9.78085 23.1564C7.57432 22.7175 5.54749 21.6342 3.95667 20.0433C2.36584 18.4525 1.28248 16.4257 0.843573 14.2192C0.404666 12.0126 0.629929 9.72548 1.49088 7.64698C2.35182 5.56847 3.80978 3.79193 5.68039 2.54203C7.551 1.29213 9.75024 0.625 12 0.625C15.0159 0.628185 17.9073 1.82764 20.0398 3.96018C22.1724 6.09271 23.3718 8.98414 23.375 12ZM21.625 12C21.625 10.0964 21.0605 8.23546 20.0029 6.65264C18.9453 5.06981 17.4421 3.83615 15.6833 3.10766C13.9246 2.37917 11.9893 2.18856 10.1223 2.55994C8.25519 2.93132 6.54018 3.84802 5.1941 5.1941C3.84802 6.54018 2.93133 8.25519 2.55995 10.1223C2.18856 11.9893 2.37917 13.9246 3.10766 15.6833C3.83616 17.4421 5.06982 18.9453 6.65264 20.0029C8.23546 21.0605 10.0964 21.625 12 21.625C14.5518 21.6221 16.9983 20.6071 18.8027 18.8027C20.6071 16.9983 21.6221 14.5518 21.625 12Z" fill="#3C79FE"/>
</svg>
